<svg xmlns="http://www.w3.org/2000/svg" viewBox="0 0 800 480"><g data-name="layer" stroke="#000" fill="#fff" stroke-width="7" stroke-linecap="round" stroke-linejoin="round"><path d="M562.5 424.5c-138 38-323.42 18.45-349 14-23-4-56.74-14.11-77-25-15.83-8.51-51.77-39-63-53-12-15-25.57-27.56-36-73-6.42-28-7-58.83-.24-86.7 12.57-51.54 47.92-90.31 90.24-122.3 22-16.63 54.37-30.87 80.84-38.58C224.2 35.3 262 29.87 278.5 29.5c59.36-1.31 77.87-.06 136 12 38.37 8 69.14 26.65 102 48 26.32 17.1 67.36 55.35 88 79 22 25.18 32.93 43.09 42 61 21.68 42.78 27.79 71.58 35 119 19.29-12.4 56.22-10.52 76.17.79 5 2.83 9.83 6.68 11.56 12.14 2.84 9-4.3 18.64-13.09 22s-18.59 2.12-27.92.82c10 4.76 20.49 10 26.4 19.33s4.64 24.1-5.35 28.86c-4.68 2.23-10.16 1.84-15.3 1.13-30.94-4.25-57.06-24.32-79.47-46.08-14.56 7.63-30 17-53 25z"/><path d="M109.59 226.06c-1.9 2.95-2.07 6.65-2.18 10.16-.24 8-.09 16.93 5.64 22.45s15.79 5.12 22.17.21 12.07-14.33 12.28-22.38c6.7 11 9.57 20.47 20 28 5 3.58 13.25 7.11 19 5 4.2-1.54 9.12-4.94 11-9 4.13-8.92 4.62-18.83 2.81-28.49m40.19-51.51c-5 1.38-6.86 3.95-10 8-2.57 3.31-3.77 7.52-4.59 10.55-1.74 6.37 1.42 13.34 5.59 18.45 2.86 3.51 7.78 6.25 11.88 8.17 9.05 4.23 20.83.49 26.39-7.81s4.81-20.07-1.15-28.08-13.12-9.28-23.11-10.66zm-176-16c-3.17 4.42-6.71 15.78-5.71 21.12a14.59 14.59 0 0 0 8.71 10.88c5 2 9.1 3.38 14 3 2.36-.18 7.51-.7 10-2 2.92-1.52 6.11-6 8-8s3.29-8.17 4-11a28.77 28.77 0 0 0 1-8c0-1-.1-2.88-3-7-2.2-3.13-4.09-4.78-8.6-6.74a18.75 18.75 0 0 0-7.4-1.26c-2 0-8-1-12 1l-6 4z"/><path d="M308.81 172a129.52 129.52 0 0 1 24.05 11.72" data-name="eyebrow"/></g></svg>